<?xml version="1.0" encoding="UTF-8"?>
<svg version="1.1" xmlns="http://www.w3.org/2000/svg" width="166" height="564">
<path d="M0 0 C0 0.66 0 1.32 0 2 C0.66 2 1.32 2 2 2 C2 2.66 2 3.32 2 4 C2.66 4 3.32 4 4 4 C4 4.99 4 5.98 4 7 C4.66 7 5.32 7 6 7 C9 11.38461538 9 11.38461538 9 14 C9.66 14 10.32 14 11 14 C13 17 13 17 13 20 C13.66 20 14.32 20 15 20 C15 20.66 15 21.32 15 22 C15.66 22 16.32 22 17 22 C17 22.99 17 23.98 17 25 C18.98 25.495 18.98 25.495 21 26 C21 27.32 21 28.64 21 30 C21.66 30 22.32 30 23 30 C23.495 31.98 23.495 31.98 24 34 C24.66 34 25.32 34 26 34 C26 34.99 26 35.98 26 37 C26.66 37 27.32 37 28 37 C28.99 39.475 28.99 39.475 30 42 C30.66 42 31.32 42 32 42 C32 42.99 32 43.98 32 45 C32.66 45 33.32 45 34 45 C34 45.66 34 46.32 34 47 C34.66 47 35.32 47 36 47 C39.875 53.625 39.875 53.625 41 57 C41.66 57 42.32 57 43 57 C43.99 59.475 43.99 59.475 45 62 C45.66 62 46.32 62 47 62 C49 64 49 64 49 67 C49.66 67 50.32 67 51 67 C52.03013277 68.64821244 53.02065076 70.32111559 54 72 C55.56984014 74.09981175 57.1730398 76.16909931 58.79296875 78.23046875 C60 80 60 80 60 82 C60.66 82 61.32 82 62 82 C64.50096014 84.18950228 65.84546617 85.9899958 66.35449219 89.31689453 C66.46638388 92.07569194 66.44678721 94.80247064 66.375 97.5625 C66.37306641 98.98079102 66.37306641 98.98079102 66.37109375 100.42773438 C66.31443692 104.88159076 66.26304791 108.071552 64 112 C63.34 112 62.68 112 62 112 C62 112.66 62 113.32 62 114 C55.98618408 119.87062982 50.80949378 120.23015549 42.61328125 120.16796875 C38.62589526 119.91167937 34.84859873 119.04116681 31 118 C30.67 116.35 30.34 114.7 30 113 C29.34 113 28.68 113 28 113 C28 112.34 28 111.68 28 111 C27.39414063 110.74863281 26.78828125 110.49726562 26.1640625 110.23828125 C21.32805867 107.47110938 18.75346565 101.10099097 17 96 C16.34 96 15.68 96 15 96 C15 95.34 15 94.68 15 94 C14.34 94 13.68 94 13 94 C13 93.01 13 92.02 13 91 C12.34 91 11.68 91 11 91 C10.67 90.34 10.34 89.68 10 89 C7.91344624 93.26695653 7.72006429 97.1252549 7.75390434 101.78361225 C7.75159665 102.56434499 7.74928897 103.34507774 7.74691135 104.14946905 C7.74160197 106.77529387 7.75060323 109.40087525 7.75949097 112.02668762 C7.75861909 113.92428685 7.75686845 115.82188585 7.75431263 117.71948355 C7.74983155 122.94153988 7.75785326 128.16351448 7.76786876 133.38556039 C7.77648998 139.01401862 7.77358404 144.64247209 7.77206421 150.27093506 C7.77101452 160.02516081 7.77729993 169.77935984 7.78853989 179.53357887 C7.8047805 193.63661267 7.81000142 207.73963352 7.81251587 221.84267565 C7.81689523 244.72284378 7.83019372 267.60299451 7.84912109 290.4831543 C7.86748818 312.71166917 7.88165628 334.94018023 7.89013672 357.16870117 C7.89039977 357.8538152 7.89066282 358.53892924 7.89093385 359.2448043 C7.89357087 366.12496674 7.8961225 373.00512921 7.89861157 379.8852917 C7.91949568 437.59020423 7.95479003 495.29510164 8 553 C7.34 553 6.68 553 6 553 C6 553.66 6 554.32 6 555 C-0.1055471 555.02464513 -6.21106551 555.04283371 -12.31665039 555.05493164 C-14.39543156 555.05997288 -16.47420916 555.06680574 -18.55297852 555.07543945 C-21.53402586 555.08751422 -24.51502649 555.09323024 -27.49609375 555.09765625 C-28.89921059 555.10539818 -28.89921059 555.10539818 -30.33067322 555.11329651 C-31.19149002 555.11337204 -32.05230682 555.11344757 -32.93920898 555.11352539 C-33.70087875 555.115746 -34.46254852 555.11796661 -35.24729919 555.12025452 C-37 555 -37 555 -38 554 C-38.09879065 551.55507517 -38.13178382 549.13840226 -38.12304783 546.69296169 C-38.12420167 545.91515595 -38.12535552 545.13735021 -38.12654433 544.3359746 C-38.12921825 541.69608445 -38.1246825 539.05625372 -38.12025452 536.41636658 C-38.12069006 534.51809521 -38.12156466 532.6198239 -38.12284368 530.72155291 C-38.12509196 525.47908071 -38.12106285 520.23662873 -38.11606562 514.9941591 C-38.11176604 509.35063384 -38.11320719 503.70710981 -38.1139679 498.06358337 C-38.11449345 488.27710129 -38.11134342 478.49062585 -38.10573006 468.70414543 C-38.09761923 454.55435971 -38.09500027 440.40457721 -38.09374207 426.25478942 C-38.09155089 403.30030995 -38.08489758 380.34583481 -38.07543945 357.39135742 C-38.06625978 335.08699563 -38.05917384 312.78263479 -38.05493164 290.47827148 C-38.05473435 289.44757019 -38.05473435 289.44757019 -38.05453308 288.39604666 C-38.05321459 281.49576232 -38.05193877 274.59547797 -38.05069422 267.69519362 C-38.04024749 209.79679332 -38.02259605 151.89839678 -38 94 C-39.32 93.34 -40.64 92.68 -42 92 C-42.33 92.66 -42.66 93.32 -43 94 C-43.66 94 -44.32 94 -45 94 C-45 94.66 -45 95.32 -45 96 C-45.66 96 -46.32 96 -47 96 C-47.0825 96.515625 -47.165 97.03125 -47.25 97.5625 C-48.32140225 101.04455732 -50.13523605 103.87200885 -52 107 C-52.66 107 -53.32 107 -54 107 C-54 107.99 -54 108.98 -54 110 C-54.66 110 -55.32 110 -56 110 C-56 110.66 -56 111.32 -56 112 C-56.66 112 -57.32 112 -58 112 C-58 112.66 -58 113.32 -58 114 C-59.98 114.495 -59.98 114.495 -62 115 C-62 115.66 -62 116.32 -62 117 C-69.9131834 120.82895971 -78.73269108 120.69899467 -87 118 C-89.30815371 116.49446562 -90.35073092 115.2748539 -92 113 C-92 112.34 -92 111.68 -92 111 C-93.32 110.34 -94.64 109.68 -96 109 C-96 107.02 -96 105.04 -96 103 C-96.66 103 -97.32 103 -98 103 C-98.21277961 97.68050971 -98.38992166 92.8993394 -96 88 C-93.875 86.625 -93.875 86.625 -92 86 C-92 85.01 -92 84.02 -92 83 C-91.34 83 -90.68 83 -90 83 C-89.855625 82.38125 -89.71125 81.7625 -89.5625 81.125 C-89 79 -89 79 -88 77 C-87.34 77 -86.68 77 -86 77 C-84.79371992 74.66785852 -83.8345262 72.50357861 -83 70 C-82.34 70 -81.68 70 -81 70 C-80.505 68.515 -80.505 68.515 -80 67 C-78.515 66.505 -78.515 66.505 -77 66 C-77 65.01 -77 64.02 -77 63 C-76.34 63 -75.68 63 -75 63 C-74.938125 62.46375 -74.87625 61.9275 -74.8125 61.375 C-73.64294485 57.95630034 -71.32405204 55.73076115 -69 53 C-68.67 52.01 -68.34 51.02 -68 50 C-67.34 50 -66.68 50 -66 50 C-65.67 49.01 -65.34 48.02 -65 47 C-64.505 46.01 -64.505 46.01 -64 45 C-63.34 45 -62.68 45 -62 45 C-61.71125 44.236875 -61.4225 43.47375 -61.125 42.6875 C-60 40 -60 40 -58 37 C-57.34 37 -56.68 37 -56 37 C-55.71125 36.4225 -55.4225 35.845 -55.125 35.25 C-54.75375 34.5075 -54.3825 33.765 -54 33 C-53.690625 32.34 -53.38125 31.68 -53.0625 31 C-51.88962593 28.79223704 -50.62751707 26.89876992 -49 25 C-48.34 25 -47.68 25 -47 25 C-47 24.01 -47 23.02 -47 22 C-46.34 22 -45.68 22 -45 22 C-44.34 20.35 -43.68 18.7 -43 17 C-42.34 17 -41.68 17 -41 17 C-40.71125 16.4225 -40.4225 15.845 -40.125 15.25 C-38.75 12.5 -37.375 9.75 -36 7 C-35.34 7 -34.68 7 -34 7 C-33.34 5.35 -32.68 3.7 -32 2 C-31.34 2 -30.68 2 -30 2 C-30 1.34 -30 0.68 -30 0 C-19.37921107 -5.55177603 -10.78688568 -5.14098381 0 0 Z " fill="#020202" transform="translate(100,5)"/>
<path d="M0 0 C0 156.42 0 312.84 0 474 C13.2 474 26.4 474 40 474 C40 317.58 40 161.16 40 0 C40.99 0.66 41.98 1.32 43 2 C43 2.66 43 3.32 43 4 C43.66 4 44.32 4 45 4 C45.625 5.875 45.625 5.875 46 8 C45.34 8.66 44.68 9.32 44 10 C41.86929518 19.02499523 42.86377163 29.16576971 42.87974548 38.400177 C42.87930904 40.27734227 42.87843279 42.15450748 42.87715632 44.03167236 C42.87492567 49.17399962 42.87891305 54.31630596 42.88393438 59.45863056 C42.88825924 65.00997223 42.88679101 70.56131276 42.8860321 76.11265564 C42.88550816 85.7254578 42.88864144 95.33825317 42.89426994 104.95105362 C42.90240248 118.84949174 42.90500196 132.74792658 42.90625793 146.64636682 C42.90844569 169.19653824 42.91508971 191.74670575 42.92456055 214.296875 C42.93374908 236.20019512 42.94083069 258.10351427 42.94506836 280.00683594 C42.94519989 280.682328 42.94533141 281.35782007 42.94546692 282.05378159 C42.94678548 288.83752555 42.94806128 295.62126952 42.94930578 302.4050135 C42.95974184 359.27001153 42.97738352 416.13500558 43 473 C42.34 473 41.68 473 41 473 C41 473.66 41 474.32 41 475 C34.8944529 475.02464513 28.78893449 475.04283371 22.68334961 475.05493164 C20.60456844 475.05997288 18.52579084 475.06680574 16.44702148 475.07543945 C13.46597414 475.08751422 10.48497351 475.09323024 7.50390625 475.09765625 C6.10078941 475.10539818 6.10078941 475.10539818 4.66932678 475.11329651 C3.37810158 475.11340981 3.37810158 475.11340981 2.06079102 475.11352539 C1.29912125 475.115746 0.53745148 475.11796661 -0.24729919 475.12025452 C-2 475 -2 475 -3 474 C-3.09879065 471.55507517 -3.13178382 469.13840226 -3.12304783 466.69296169 C-3.12420167 465.91515595 -3.12535552 465.13735021 -3.12654433 464.3359746 C-3.12921825 461.69608445 -3.1246825 459.05625372 -3.12025452 456.41636658 C-3.12069006 454.51809521 -3.12156466 452.6198239 -3.12284368 450.72155291 C-3.12509196 445.47908071 -3.12106285 440.23662873 -3.11606562 434.9941591 C-3.11176604 429.35063384 -3.11320719 423.70710981 -3.1139679 418.06358337 C-3.11449345 408.27710129 -3.11134342 398.49062585 -3.10573006 388.70414543 C-3.09761923 374.55435971 -3.09500027 360.40457721 -3.09374207 346.25478942 C-3.09155089 323.30030995 -3.08489758 300.34583481 -3.07543945 277.39135742 C-3.06625978 255.08699563 -3.05917384 232.78263479 -3.05493164 210.47827148 C-3.05480011 209.79113729 -3.05466859 209.1040031 -3.05453308 208.39604666 C-3.05321459 201.49576232 -3.05193877 194.59547797 -3.05069422 187.69519362 C-3.04024749 129.79679332 -3.02259605 71.89839678 -3 14 C-4.32 13.34 -5.64 12.68 -7 12 C-7.33 12.66 -7.66 13.32 -8 14 C-8.66 14 -9.32 14 -10 14 C-10 14.66 -10 15.32 -10 16 C-10.66 16 -11.32 16 -12 16 C-11.67 14.35 -11.34 12.7 -11 11 C-10.34 11 -9.68 11 -9 11 C-9 10.34 -9 9.68 -9 9 C-8.34 9 -7.68 9 -7 9 C-6.67 7.35 -6.34 5.7 -6 4 C-5.34 4 -4.68 4 -4 4 C-4 3.01 -4 2.02 -4 1 C-1 0 -1 0 0 0 Z " fill="#D8D8D8" transform="translate(65,85)"/>
<path d="M0 0 C0.66 0 1.32 0 2 0 C2 0.66 2 1.32 2 2 C2.66 2 3.32 2 4 2 C4.625 3.875 4.625 3.875 5 6 C4.34 6.66 3.68 7.32 3 8 C0.86929518 17.02499523 1.86377163 27.16576971 1.87974548 36.400177 C1.87930904 38.27734227 1.87843279 40.15450748 1.87715632 42.03167236 C1.87492567 47.17399962 1.87891305 52.31630596 1.88393438 57.45863056 C1.88825924 63.00997223 1.88679101 68.56131276 1.8860321 74.11265564 C1.88550816 83.7254578 1.88864144 93.33825317 1.89426994 102.95105362 C1.90240248 116.84949174 1.90500196 130.74792658 1.90625793 144.64636682 C1.90844569 167.19653824 1.91508971 189.74670575 1.92456055 212.296875 C1.93374908 234.20019512 1.94083069 256.10351427 1.94506836 278.00683594 C1.94519989 278.682328 1.94533141 279.35782007 1.94546692 280.05378159 C1.94678548 286.83752555 1.94806128 293.62126952 1.94930578 300.4050135 C1.95974184 357.27001153 1.97738352 414.13500558 2 471 C1.34 471 0.68 471 0 471 C0 315.57 0 160.14 0 0 Z " fill="#FEFEFE" transform="translate(106,87)"/>
<path d="M0 0 C0.66 0 1.32 0 2 0 C2.66 1.65 3.32 3.3 4 5 C4.66 5 5.32 5 6 5 C8 7 8 7 8 10 C8.66 10 9.32 10 10 10 C11.03013277 11.64821244 12.02065076 13.32111559 13 15 C14.56984014 17.09981175 16.1730398 19.16909931 17.79296875 21.23046875 C19 23 19 23 19 25 C19.66 25 20.32 25 21 25 C23.50096014 27.18950228 24.84546617 28.9899958 25.35449219 32.31689453 C25.46638388 35.07569194 25.44678721 37.80247064 25.375 40.5625 C25.37371094 41.50802734 25.37242187 42.45355469 25.37109375 43.42773438 C25.31443692 47.88159076 25.26304791 51.071552 23 55 C22.34 55 21.68 55 21 55 C21 55.66 21 56.32 21 57 C14.98618408 62.87062982 9.80949378 63.23015549 1.61328125 63.16796875 C-2.37410474 62.91167937 -6.15140127 62.04116681 -10 61 C-10.33 59.35 -10.66 57.7 -11 56 C-11.66 56 -12.32 56 -13 56 C-13 55.34 -13 54.68 -13 54 C-13.60328125 53.7525 -14.2065625 53.505 -14.828125 53.25 C-17.35722953 51.79440027 -18.26772507 50.48875791 -19.75 48 C-20.39195313 46.948125 -20.39195313 46.948125 -21.046875 45.875 C-22 44 -22 44 -22 42 C-21.34 42 -20.68 42 -20 42 C-20 42.99 -20 43.98 -20 45 C-19.34 45 -18.68 45 -18 45 C-18 45.66 -18 46.32 -18 47 C-17.34 47 -16.68 47 -16 47 C-16 47.66 -16 48.32 -16 49 C-15.34 49 -14.68 49 -14 49 C-14 49.66 -14 50.32 -14 51 C-13.34 51 -12.68 51 -12 51 C-12 51.99 -12 52.98 -12 54 C-10.68 54.33 -9.36 54.66 -8 55 C-7.67 56.32 -7.34 57.64 -7 59 C-3.37083939 60.11944258 0.09082034 60.20117188 3.875 60.25 C5.66550781 60.28867188 5.66550781 60.28867188 7.4921875 60.328125 C11.36034239 59.96629314 13.73667771 59.08462976 17 57 C17.33 56.01 17.66 55.02 18 54 C18.66 54 19.32 54 20 54 C20 53.34 20 52.68 20 52 C20.66 52 21.32 52 22 52 C22 51.01 22 50.02 22 49 C22.66 49 23.32 49 24 49 C24 44.38 24 39.76 24 35 C23.34 35 22.68 35 22 35 C21.34 32.69 20.68 30.38 20 28 C19.34 28 18.68 28 18 28 C18 27.34 18 26.68 18 26 C17.34 26 16.68 26 16 26 C16 25.01 16 24.02 16 23 C15.34 23 14.68 23 14 23 C14 22.34 14 21.68 14 21 C13.34 21 12.68 21 12 21 C11.505 18.03 11.505 18.03 11 15 C10.34 15 9.68 15 9 15 C9 14.34 9 13.68 9 13 C8.34 13 7.68 13 7 13 C7 12.01 7 11.02 7 10 C6.34 10 5.68 10 5 10 C5 9.34 5 8.68 5 8 C4.34 8 3.68 8 3 8 C2.67 6.35 2.34 4.7 2 3 C1.34 3 0.68 3 0 3 C0 2.01 0 1.02 0 0 Z " fill="#D4D4D4" transform="translate(141,62)"/>
<path d="M0 0 C0 0.66 0 1.32 0 2 C0.66 2 1.32 2 2 2 C2 2.66 2 3.32 2 4 C2.66 4 3.32 4 4 4 C4 4.99 4 5.98 4 7 C4.66 7 5.32 7 6 7 C9 11.38461538 9 11.38461538 9 14 C8.34 14 7.68 14 7 14 C7 13.34 7 12.68 7 12 C6.34 12 5.68 12 5 12 C5 11.34 5 10.68 5 10 C4.01 10 3.02 10 2 10 C2 9.34 2 8.68 2 8 C1.34 8 0.68 8 0 8 C-0.495 5.525 -0.495 5.525 -1 3 C-1.94875 2.690625 -2.8975 2.38125 -3.875 2.0625 C-7 1 -7 1 -9 0 C-11.10053716 -0.14901491 -13.20687825 -0.22138453 -15.3125 -0.25 C-16.44300781 -0.27578125 -17.57351562 -0.3015625 -18.73828125 -0.328125 C-22.29983623 0.03016317 -24.06946825 1.02902289 -27 3 C-27.66 3 -28.32 3 -29 3 C-29 3.66 -29 4.32 -29 5 C-29.66 5 -30.32 5 -31 5 C-31 5.66 -31 6.32 -31 7 C-31.66 7 -32.32 7 -33 7 C-33 7.99 -33 8.98 -33 10 C-33.66 10 -34.32 10 -35 10 C-35 10.66 -35 11.32 -35 12 C-35.66 12 -36.32 12 -37 12 C-37 12.99 -37 13.98 -37 15 C-37.66 15 -38.32 15 -39 15 C-39 15.66 -39 16.32 -39 17 C-39.66 17 -40.32 17 -41 17 C-39.33333333 13.66666667 -37.66666667 10.33333333 -36 7 C-35.34 7 -34.68 7 -34 7 C-33.34 5.35 -32.68 3.7 -32 2 C-31.34 2 -30.68 2 -30 2 C-30 1.34 -30 0.68 -30 0 C-19.37921107 -5.55177603 -10.78688568 -5.14098381 0 0 Z " fill="#C1C1C1" transform="translate(100,5)"/>
<path d="M0 0 C0.66 0 1.32 0 2 0 C2 14.19 2 28.38 2 43 C1.67 43 1.34 43 1 43 C0.09183202 39.13792926 -0.11643845 35.56851344 -0.09765625 31.60546875 C-0.09443359 30.40341797 -0.09121094 29.20136719 -0.08789062 27.96289062 C-0.07951172 26.71701172 -0.07113281 25.47113281 -0.0625 24.1875 C-0.05573242 22.28967773 -0.05573242 22.28967773 -0.04882812 20.35351562 C-0.03706251 17.2356289 -0.02062272 14.11783867 0 11 C-1.32 10.34 -2.64 9.68 -4 9 C-4.33 9.66 -4.66 10.32 -5 11 C-5.66 11 -6.32 11 -7 11 C-7 11.66 -7 12.32 -7 13 C-7.66 13 -8.32 13 -9 13 C-8.67 11.35 -8.34 9.7 -8 8 C-7.34 8 -6.68 8 -6 8 C-6 7.34 -6 6.68 -6 6 C-5.34 6 -4.68 6 -4 6 C-4 5.34 -4 4.68 -4 4 C-3.34 4 -2.68 4 -2 4 C-2 3.34 -2 2.68 -2 2 C-1.34 2 -0.68 2 0 2 C0 1.34 0 0.68 0 0 Z " fill="#FEFEFE" transform="translate(62,88)"/>
<path d="M0 0 C0.66 0 1.32 0 2 0 C1.67 1.98 1.34 3.96 1 6 C0.34 6 -0.32 6 -1 6 C-1 6.99 -1 7.98 -1 9 C-1.66 9 -2.32 9 -3 9 C-3 9.99 -3 10.98 -3 12 C-3.66 12 -4.32 12 -5 12 C-7.08305834 18.96574709 -6.95629452 27.34833732 -4 34 C-5.32 33.34 -6.64 32.68 -8 32 C-8 30.02 -8 28.04 -8 26 C-8.66 26 -9.32 26 -10 26 C-10.21277961 20.68050971 -10.38992166 15.8993394 -8 11 C-5.875 9.625 -5.875 9.625 -4 9 C-4 8.01 -4 7.02 -4 6 C-3.34 6 -2.68 6 -2 6 C-1.855625 5.38125 -1.71125 4.7625 -1.5625 4.125 C-1 2 -1 2 0 0 Z " fill="#E3E3E3" transform="translate(12,82)"/>
<path d="M0 0 C1.32 0.33 2.64 0.66 4 1 C4 1.66 4 2.32 4 3 C12.80960142 4.30512614 21.19039858 4.30512614 30 3 C30 3.66 30 4.32 30 5 C22.09444024 8.82527085 13.25841988 8.70918053 5 6 C2.75356384 4.49105476 1.63996255 3.20546688 0 1 C0 0.67 0 0.34 0 0 Z " fill="#767676" transform="translate(8,117)"/>
<path d="M0 0 C0.66 0 1.32 0 2 0 C1.67 1.98 1.34 3.96 1 6 C0.34 6 -0.32 6 -1 6 C-1 6.99 -1 7.98 -1 9 C-1.66 9 -2.32 9 -3 9 C-3 9.66 -3 10.32 -3 11 C-3.66 11 -4.32 11 -5 11 C-5 11.66 -5 12.32 -5 13 C-5.66 13 -6.32 13 -7 13 C-7 13.99 -7 14.98 -7 16 C-7.66 16 -8.32 16 -9 16 C-9 16.66 -9 17.32 -9 18 C-9.66 18 -10.32 18 -11 18 C-11 18.66 -11 19.32 -11 20 C-11.66 20 -12.32 20 -13 20 C-12.690625 19.401875 -12.38125 18.80375 -12.0625 18.1875 C-10.89790296 15.91043228 -10.89790296 15.91043228 -10 13 C-9.34 13 -8.68 13 -8 13 C-7.67 12.01 -7.34 11.02 -7 10 C-6.67 9.34 -6.34 8.68 -6 8 C-5.34 8 -4.68 8 -4 8 C-3.71125 7.236875 -3.4225 6.47375 -3.125 5.6875 C-2 3 -2 3 0 0 Z " fill="#E1E1E1" transform="translate(42,42)"/>
<path d="M0 0 C0.66 0 1.32 0 2 0 C4 3 4 3 4 6 C4.66 6 5.32 6 6 6 C6 6.66 6 7.32 6 8 C6.66 8 7.32 8 8 8 C8 8.99 8 9.98 8 11 C9.32 11.33 10.64 11.66 12 12 C12 13.32 12 14.64 12 16 C12.66 16 13.32 16 14 16 C14.33 17.32 14.66 18.64 15 20 C14.34 20 13.68 20 13 20 C13 19.34 13 18.68 13 18 C12.34 18 11.68 18 11 18 C11 17.34 11 16.68 11 16 C10.34 16 9.68 16 9 16 C9 15.01 9 14.02 9 13 C8.34 13 7.68 13 7 13 C7 12.34 7 11.68 7 11 C6.34 11 5.68 11 5 11 C5 10.34 5 9.68 5 9 C4.34 9 3.68 9 3 9 C3 8.01 3 7.02 3 6 C2.34 6 1.68 6 1 6 C0.67 4.02 0.34 2.04 0 0 Z " fill="#E9E9E9" transform="translate(109,19)"/>
<path d="M0 0 C0.66 0 1.32 0 2 0 C2.66 1.65 3.32 3.3 4 5 C4.66 5 5.32 5 6 5 C8 7 8 7 8 10 C8.66 10 9.32 10 10 10 C11.03435556 11.64556566 12.02763513 13.3170608 13 15 C13.721875 15.886875 14.44375 16.77375 15.1875 17.6875 C17 20 17 20 17 22 C16.34 22 15.68 22 15 22 C15 21.34 15 20.68 15 20 C14.34 20 13.68 20 13 20 C13 19.34 13 18.68 13 18 C12.34 18 11.68 18 11 18 C11 17.01 11 16.02 11 15 C10.34 15 9.68 15 9 15 C9 14.34 9 13.68 9 13 C8.34 13 7.68 13 7 13 C7 12.01 7 11.02 7 10 C6.34 10 5.68 10 5 10 C5 9.34 5 8.68 5 8 C4.34 8 3.68 8 3 8 C2.67 6.35 2.34 4.7 2 3 C1.34 3 0.68 3 0 3 C0 2.01 0 1.02 0 0 Z " fill="#F2F2F2" transform="translate(141,62)"/>
<path d="M0 0 C0.66 0 1.32 0 2 0 C2 0.99 2 1.98 2 3 C1.34 3 0.68 3 0 3 C-0.33 4.98 -0.66 6.96 -1 9 C-1.66 9 -2.32 9 -3 9 C-3 9.66 -3 10.32 -3 11 C-3.66 11 -4.32 11 -5 11 C-5 11.66 -5 12.32 -5 13 C-5.66 13 -6.32 13 -7 13 C-7 13.66 -7 14.32 -7 15 C-7.66 15 -8.32 15 -9 15 C-9 15.99 -9 16.98 -9 18 C-9.66 18 -10.32 18 -11 18 C-11 18.66 -11 19.32 -11 20 C-11.66 20 -12.32 20 -13 20 C-12 18 -12 18 -11 16 C-10.5359375 15.01 -10.5359375 15.01 -10.0625 14 C-8.88962593 11.79223704 -7.62751707 9.89876992 -6 8 C-5.34 8 -4.68 8 -4 8 C-4 7.01 -4 6.02 -4 5 C-3.34 5 -2.68 5 -2 5 C-1.34 3.35 -0.68 1.7 0 0 Z " fill="#E7E7E7" transform="translate(57,22)"/>
<path d="M0 0 C0.66 0 1.32 0 2 0 C0.66749209 3.5875213 -0.830717 6.8364623 -3 10 C-3.66 10 -4.32 10 -5 10 C-5 10.99 -5 11.98 -5 13 C-5.66 13 -6.32 13 -7 13 C-7 13.66 -7 14.32 -7 15 C-7.66 15 -8.32 15 -9 15 C-9 15.66 -9 16.32 -9 17 C-10.32 17.33 -11.64 17.66 -13 18 C-12.67 16.68 -12.34 15.36 -12 14 C-11.34 14 -10.68 14 -10 14 C-10 13.34 -10 12.68 -10 12 C-9.34 12 -8.68 12 -8 12 C-8 11.34 -8 10.68 -8 10 C-7.34 10 -6.68 10 -6 10 C-6 9.34 -6 8.68 -6 8 C-5.34 8 -4.68 8 -4 8 C-3.67 6.02 -3.34 4.04 -3 2 C-2.01 2 -1.02 2 0 2 C0 1.34 0 0.68 0 0 Z " fill="#DADADA" transform="translate(51,102)"/>
<path d="M0 0 C1.125 3.75 1.125 3.75 0 6 C-0.66 6 -1.32 6 -2 6 C-2 6.99 -2 7.98 -2 9 C-2.66 9 -3.32 9 -4 9 C-4 9.66 -4 10.32 -4 11 C-4.66 11 -5.32 11 -6 11 C-6 11.66 -6 12.32 -6 13 C-6.66 13 -7.32 13 -8 13 C-8 13.66 -8 14.32 -8 15 C-8.66 15 -9.32 15 -10 15 C-10 15.99 -10 16.98 -10 18 C-10.66 18 -11.32 18 -12 18 C-12 18.66 -12 19.32 -12 20 C-12.66 20 -13.32 20 -14 20 C-13.690625 19.401875 -13.38125 18.80375 -13.0625 18.1875 C-11.89790296 15.91043228 -11.89790296 15.91043228 -11 13 C-10.34 13 -9.68 13 -9 13 C-8.67 12.01 -8.34 11.02 -8 10 C-7.01 9.67 -6.02 9.34 -5 9 C-5 8.01 -5 7.02 -5 6 C-4.34 6 -3.68 6 -3 6 C-2.87625 5.38125 -2.7525 4.7625 -2.625 4.125 C-2 2 -2 2 0 0 Z " fill="#E8E8E8" transform="translate(28,62)"/>
<path d="M0 0 C0.66 0 1.32 0 2 0 C2 0.99 2 1.98 2 3 C2.66 3 3.32 3 4 3 C4 3.66 4 4.32 4 5 C4.66 5 5.32 5 6 5 C6 5.66 6 6.32 6 7 C6.66 7 7.32 7 8 7 C8 7.66 8 8.32 8 9 C8.66 9 9.32 9 10 9 C10 9.99 10 10.98 10 12 C10.9590625 12.1546875 10.9590625 12.1546875 11.9375 12.3125 C12.9584375 12.6528125 12.9584375 12.6528125 14 13 C14.33 13.99 14.66 14.98 15 16 C14.34 16 13.68 16 13 16 C13 15.34 13 14.68 13 14 C11.68 14 10.36 14 9 14 C9 13.34 9 12.68 9 12 C8.39671875 11.7525 7.7934375 11.505 7.171875 11.25 C4.64277047 9.79440027 3.73227493 8.48875791 2.25 6 C1.82203125 5.29875 1.3940625 4.5975 0.953125 3.875 C0 2 0 2 0 0 Z " fill="#B4B4B4" transform="translate(119,104)"/>
<path d="M0 0 C0.66 0 1.32 0 2 0 C2 0.66 2 1.32 2 2 C2.66 2 3.32 2 4 2 C4 2.66 4 3.32 4 4 C5.32 4.33 6.64 4.66 8 5 C8 5.66 8 6.32 8 7 C8.66 7 9.32 7 10 7 C13.00617269 10.00617269 12.59585316 12.82381598 13 17 C12.34 17 11.68 17 11 17 C10.34 14.69 9.68 12.38 9 10 C8.34 10 7.68 10 7 10 C7 9.34 7 8.68 7 8 C6.34 8 5.68 8 5 8 C5 7.01 5 6.02 5 5 C4.34 5 3.68 5 3 5 C3 4.34 3 3.68 3 3 C2.34 3 1.68 3 1 3 C0.67 2.01 0.34 1.02 0 0 Z " fill="#BEBEBE" transform="translate(152,80)"/>
<path d="M0 0 C0.66 0 1.32 0 2 0 C1.67 1.98 1.34 3.96 1 6 C0.34 6 -0.32 6 -1 6 C-1 6.99 -1 7.98 -1 9 C-1.66 9 -2.32 9 -3 9 C-3 9.99 -3 10.98 -3 12 C-3.66 12 -4.32 12 -5 12 C-5.33 13.32 -5.66 14.64 -6 16 C-7.33332095 13.3333581 -6.67102033 11.83319697 -6 9 C-5.34 9 -4.68 9 -4 9 C-4 8.01 -4 7.02 -4 6 C-3.34 6 -2.68 6 -2 6 C-1.855625 5.38125 -1.71125 4.7625 -1.5625 4.125 C-1 2 -1 2 0 0 Z " fill="#B8B8B8" transform="translate(12,82)"/>
<path d="M0 0 C0.66 0 1.32 0 2 0 C1.67 1.65 1.34 3.3 1 5 C0.34 5 -0.32 5 -1 5 C-1 5.99 -1 6.98 -1 8 C-1.66 8 -2.32 8 -3 8 C-3 8.66 -3 9.32 -3 10 C-3.66 10 -4.32 10 -5 10 C-5 10.99 -5 11.98 -5 13 C-5.66 13 -6.32 13 -7 13 C-7 13.66 -7 14.32 -7 15 C-7.66 15 -8.32 15 -9 15 C-7.33333333 11.66666667 -5.66666667 8.33333333 -4 5 C-3.34 5 -2.68 5 -2 5 C-1.34 3.35 -0.68 1.7 0 0 Z " fill="#E8E8E8" transform="translate(68,7)"/>
<path d="M0 0 C0.66 0 1.32 0 2 0 C2 0.66 2 1.32 2 2 C8.01339937 3.95928381 13.69632197 5.41632611 20 6 C20 6.33 20 6.66 20 7 C13.34949576 7.24991456 7.43013467 6.73955334 1 5 C0.67 3.35 0.34 1.7 0 0 Z " fill="#F4F4F4" transform="translate(130,118)"/>
<path d="M0 0 C0.66 0 1.32 0 2 0 C2 0.99 2 1.98 2 3 C2.66 3 3.32 3 4 3 C4 3.66 4 4.32 4 5 C4.66 5 5.32 5 6 5 C9.875 11.625 9.875 11.625 11 15 C10.34 15 9.68 15 9 15 C9 14.34 9 13.68 9 13 C8.34 13 7.68 13 7 13 C7 12.01 7 11.02 7 10 C6.34 10 5.68 10 5 10 C5 9.34 5 8.68 5 8 C4.34 8 3.68 8 3 8 C3 7.01 3 6.02 3 5 C2.34 5 1.68 5 1 5 C0.67 3.35 0.34 1.7 0 0 Z " fill="#EAEAEA" transform="translate(130,47)"/>
<path d="M0 0 C-0.556875 0.268125 -1.11375 0.53625 -1.6875 0.8125 C-4.08933398 2.00699665 -4.08933398 2.00699665 -6.625 3.625 C-9 5 -9 5 -11 5 C-11.33 5.66 -11.66 6.32 -12 7 C-12 5.35 -12 3.7 -12 2 C-7.52828892 -0.66173278 -5.06604612 -1.3268216 0 0 Z " fill="#CDCDCD" transform="translate(82,3)"/>
<path d="M0 0 C0.66 0 1.32 0 2 0 C2 0.66 2 1.32 2 2 C2.66 2 3.32 2 4 2 C4.8125 3.6875 4.8125 3.6875 5 6 C2.5625 8.75 2.5625 8.75 0 11 C0 7.37 0 3.74 0 0 Z " fill="#F1F1F1" transform="translate(106,87)"/>
<path d="M0 0 C0.66 0 1.32 0 2 0 C2 0.66 2 1.32 2 2 C2.66 2 3.32 2 4 2 C4 2.99 4 3.98 4 5 C4.66 5 5.32 5 6 5 C9 9.38461538 9 9.38461538 9 12 C8.34 12 7.68 12 7 12 C7 11.34 7 10.68 7 10 C6.34 10 5.68 10 5 10 C5 9.34 5 8.68 5 8 C4.34 8 3.68 8 3 8 C3 7.01 3 6.02 3 5 C2.34 5 1.68 5 1 5 C0.67 3.35 0.34 1.7 0 0 Z " fill="#EDEDED" transform="translate(100,7)"/>
<path d="M0 0 C1 2 1 2 0.875 5.5625 C0.78573772 10.42729426 2.25388226 14.50998296 4 19 C3.34 19.33 2.68 19.66 2 20 C-1.39703898 13.77209521 -1.57613026 8.02435735 -1 1 C-0.67 0.67 -0.34 0.34 0 0 Z " fill="#434343" transform="translate(6,97)"/>
<path d="M0 0 C0.66 0 1.32 0 2 0 C1.67 1.98 1.34 3.96 1 6 C0.34 6 -0.32 6 -1 6 C-1 6.99 -1 7.98 -1 9 C-1.66 9 -2.32 9 -3 9 C-3.33 9.66 -3.66 10.32 -4 11 C-4.42820102 7.36029133 -3.97413512 5.95430537 -2.125 2.6875 C-1.42375 1.800625 -0.7225 0.91375 0 0 Z " fill="#BFBFBF" transform="translate(42,42)"/>
<path d="M0 0 C0.66 0 1.32 0 2 0 C4 3 4 3 4 6 C4.66 6 5.32 6 6 6 C6 7.65 6 9.3 6 11 C5.67 10.34 5.34 9.68 5 9 C4.34 9 3.68 9 3 9 C3 8.01 3 7.02 3 6 C2.34 6 1.68 6 1 6 C0.67 4.02 0.34 2.04 0 0 Z " fill="#C6C6C6" transform="translate(109,19)"/>
<path d="M0 0 C3 0 3 0 5.125 1.625 C7.34914783 4.44225392 7.67895459 6.46850054 8 10 C7.34 9.67 6.68 9.34 6 9 C6 8.34 6 7.68 6 7 C5.34 7 4.68 7 4 7 C4 6.34 4 5.68 4 5 C3.34 5 2.68 5 2 5 C2 4.01 2 3.02 2 2 C1.34 2 0.68 2 0 2 C0 1.34 0 0.68 0 0 Z " fill="#AFAFAF" transform="translate(111,94)"/>
<path d="M0 0 C1.125 3.75 1.125 3.75 0 6 C-0.66 6 -1.32 6 -2 6 C-2 6.99 -2 7.98 -2 9 C-2.66 9 -3.32 9 -4 9 C-4.33 9.66 -4.66 10.32 -5 11 C-5 9.35 -5 7.7 -5 6 C-4.34 6 -3.68 6 -3 6 C-2.87625 5.38125 -2.7525 4.7625 -2.625 4.125 C-2 2 -2 2 0 0 Z " fill="#B3B3B3" transform="translate(28,62)"/>
<path d="M0 0 C1.32 0.33 2.64 0.66 4 1 C4 1.66 4 2.32 4 3 C6.97 3.99 9.94 4.98 13 6 C8.0702474 7.23243815 6.39872517 6.36227833 2 4 C0.5625 1.8125 0.5625 1.8125 0 0 Z " fill="#E0E0E0" transform="translate(8,117)"/>
<path d="M0 0 C0.66 0 1.32 0 2 0 C2 0.99 2 1.98 2 3 C1.34 3 0.68 3 0 3 C-0.33 4.98 -0.66 6.96 -1 9 C-1.66 9 -2.32 9 -3 9 C-3.33 9.66 -3.66 10.32 -4 11 C-4 9.02 -4 7.04 -4 5 C-3.34 5 -2.68 5 -2 5 C-1.34 3.35 -0.68 1.7 0 0 Z " fill="#CCCCCC" transform="translate(57,22)"/>
<path d="M0 0 C0.66 0 1.32 0 2 0 C2.66 1.65 3.32 3.3 4 5 C4.66 5 5.32 5 6 5 C6 6.65 6 8.3 6 10 C5.67 9.34 5.34 8.68 5 8 C4.34 8 3.68 8 3 8 C2.67 6.35 2.34 4.7 2 3 C1.34 3 0.68 3 0 3 C0 2.01 0 1.02 0 0 Z " fill="#E3E3E3" transform="translate(141,62)"/>
<path d="M0 0 C0.66 0 1.32 0 2 0 C2 0.99 2 1.98 2 3 C2.66 3 3.32 3 4 3 C4.66 4.65 5.32 6.3 6 8 C5.34 8 4.68 8 4 8 C4 7.34 4 6.68 4 6 C3.01 6 2.02 6 1 6 C0.67 4.02 0.34 2.04 0 0 Z " fill="#DEDEDE" transform="translate(124,39)"/>
<path d="M0 0 C0.33 0.99 0.66 1.98 1 3 C0.34 3 -0.32 3 -1 3 C-1 4.32 -1 5.64 -1 7 C-1.66 7 -2.32 7 -3 7 C-3 7.66 -3 8.32 -3 9 C-3.66 9 -4.32 9 -5 9 C-4.67 7.35 -4.34 5.7 -4 4 C-3.34 4 -2.68 4 -2 4 C-2 3.34 -2 2.68 -2 2 C-1.34 2 -0.68 2 0 2 C0 1.34 0 0.68 0 0 Z " fill="#ABABAB" transform="translate(58,92)"/>
</svg>
