<?xml version="1.0" standalone="no"?>
<!DOCTYPE svg PUBLIC "-//W3C//DTD SVG 20010904//EN"
 "http://www.w3.org/TR/2001/REC-SVG-20010904/DTD/svg10.dtd">
<svg version="1.0" xmlns="http://www.w3.org/2000/svg"
 width="270.000000pt" height="160.000000pt" viewBox="0 0 270.000000 160.000000"
 preserveAspectRatio="xMidYMid meet">

<g transform="translate(0.000000,160.000000) scale(0.100000,-0.100000)"
fill="#000000" stroke="none">
<path d="M1180 1564 c-92 -16 -224 -50 -279 -71 -290 -108 -560 -318 -773
-600 l-70 -93 38 -52 c287 -398 676 -656 1071 -709 110 -15 383 -6 473 16 183
44 345 116 507 227 180 123 325 267 457 451 l48 67 -73 98 c-107 142 -314 345
-428 420 -166 109 -359 192 -528 227 -75 16 -386 29 -443 19z m321 -262 c89
-25 152 -63 224 -136 130 -131 181 -309 140 -484 -44 -184 -184 -333 -364
-386 -79 -23 -222 -21 -304 4 -239 74 -397 327 -359 578 30 195 181 367 376
428 62 19 210 17 287 -4z"/>
<path d="M1219 1067 c-181 -93 -222 -323 -84 -475 58 -65 123 -92 220 -92 67
0 90 4 132 26 58 28 111 82 145 146 33 61 33 194 0 255 -35 67 -79 110 -144
143 -51 25 -73 30 -134 30 -62 0 -81 -5 -135 -33z"/>
</g>
</svg>
