<?xml version="1.0" standalone="no"?>
<!DOCTYPE svg PUBLIC "-//W3C//DTD SVG 20010904//EN"
 "http://www.w3.org/TR/2001/REC-SVG-20010904/DTD/svg10.dtd">
<svg version="1.0" xmlns="http://www.w3.org/2000/svg"
 width="278.000000pt" height="188.000000pt" viewBox="0 0 278.000000 188.000000"
 preserveAspectRatio="xMidYMid meet">

<g transform="translate(0.000000,188.000000) scale(0.100000,-0.100000)"
fill="#000000" stroke="none">
<path d="M1467 1188 c-359 -358 -726 -728 -817 -820 l-165 -168 88 -88 87 -87
117 117 118 117 119 -34 c138 -40 241 -55 376 -55 225 0 402 39 585 129 269
133 488 320 669 575 l48 67 -73 97 c-93 122 -257 287 -374 377 -49 37 -94 72
-100 77 -5 5 25 43 78 96 l88 88 -85 82 c-46 45 -89 82 -96 82 -6 0 -305 -293
-663 -652z m403 -28 c27 -53 50 -153 50 -220 0 -225 -157 -436 -372 -501 -95
-29 -257 -24 -338 11 -89 38 -89 36 -5 120 l76 75 93 -3 c77 -3 102 0 139 16
65 29 122 85 157 154 25 50 30 73 29 127 0 36 -4 75 -9 86 -6 16 5 34 68 98
42 42 80 77 84 77 4 0 17 -18 28 -40z"/>
<path d="M1196 1699 c-191 -28 -420 -122 -609 -251 -112 -77 -314 -276 -416
-410 l-73 -97 23 -33 c47 -68 189 -235 253 -298 l66 -65 196 195 c107 107 204
208 216 223 11 15 26 55 34 89 34 147 148 291 279 353 38 18 86 36 105 40 67
14 126 54 220 150 84 87 93 99 75 106 -26 10 -294 9 -369 -2z"/>
</g>
</svg>
